<svg width="33" height="34" viewBox="0 0 33 34" fill="none" xmlns="http://www.w3.org/2000/svg">
<path fill-rule="evenodd" clip-rule="evenodd" d="M5.15625 25.272C5.15625 24.7024 5.61796 24.2407 6.1875 24.2407H26.8125C27.382 24.2407 27.8438 24.7024 27.8438 25.272C27.8438 25.8415 27.382 26.3032 26.8125 26.3032H6.1875C5.61796 26.3032 5.15625 25.8415 5.15625 25.272Z" fill="#212529"/>
<path fill-rule="evenodd" clip-rule="evenodd" d="M5.15625 17.022C5.15625 16.4524 5.61796 15.9907 6.1875 15.9907H26.8125C27.382 15.9907 27.8438 16.4524 27.8438 17.022C27.8438 17.5915 27.382 18.0532 26.8125 18.0532H6.1875C5.61796 18.0532 5.15625 17.5915 5.15625 17.022Z" fill="#212529"/>
<path fill-rule="evenodd" clip-rule="evenodd" d="M5.15625 8.77197C5.15625 8.20243 5.61796 7.74072 6.1875 7.74072H26.8125C27.382 7.74072 27.8438 8.20243 27.8438 8.77197C27.8438 9.34152 27.382 9.80322 26.8125 9.80322H6.1875C5.61796 9.80322 5.15625 9.34152 5.15625 8.77197Z" fill="#212529"/>
</svg>
